<?xml version="1.0" standalone="no"?><!DOCTYPE svg PUBLIC "-//W3C//DTD SVG 1.1//EN" "http://www.w3.org/Graphics/SVG/1.1/DTD/svg11.dtd"><svg t="1614924752715" class="icon" viewBox="0 0 2560 1024" version="1.1" xmlns="http://www.w3.org/2000/svg" p-id="3197" data-spm-anchor-id="a313x.7781069.0.i6" xmlns:xlink="http://www.w3.org/1999/xlink" width="320" height="128"><defs><style type="text/css"></style></defs><path d="M576.520325 0h722.211382c66.601626 0 120.715447 54.113821 120.715447 120.715447v401.691057c0 12.487805-2.081301 24.97561-6.243902 35.382114l-83.252032-72.845529c-18.731707-18.731707-54.113821-27.056911-83.252033-14.569105l-147.772358-151.93496L1377.821138 99.902439 936.585366 337.170732 495.349593 99.902439 776.325203 318.439024l-231.02439 237.268293 280.97561-201.886179 110.308943 72.845529 110.308943-72.845529 178.99187 126.95935c-18.731707 14.569106-29.138211 37.463415-29.138212 62.439024v41.626016c-45.788618 6.243902-99.902439 22.894309-147.772357 58.276423H576.520325c-66.601626 0-120.715447-54.113821-120.715447-120.715447V120.715447c0-66.601626 54.113821-120.715447 120.715447-120.715447z" fill="#f4ea2a" p-id="3198" data-spm-anchor-id="a313x.7781069.0.i5" class="selected"></path><path d="M1257.105691 543.219512v97.821138c-129.04065 0-299.707317 62.439024-299.707317 382.95935C1013.593496 817.95122 1090.601626 803.382114 1257.105691 803.382114v99.902439c0 8.325203 4.162602 14.569106 10.406504 16.650406 2.081301 2.081301 4.162602 2.081301 6.243903 2.081301 6.243902 0 10.406504-2.081301 14.569105-6.243902l201.886179-181.073171c8.325203-6.243902 8.325203-18.731707 0-27.056911L1288.325203 528.650407c-6.243902-6.243902-14.569106-6.243902-20.813008-4.162602-6.243902 4.162602-10.406504 10.406504-10.406504 18.731707z" fill="#1296db" p-id="3199" data-spm-anchor-id="a313x.7781069.0.i4" class=""></path></svg>